HIERARCHY
ROOT Hips
{
	OFFSET 0.000000 0.000000 0.000000
	CHANNELS 6 Xposition Yposition Zposition Zrotation Yrotation Xrotation 
	JOINT LeftUpLeg_virtual
	{
		OFFSET 0.000000 0.000000 0.000000
		CHANNELS 3 Zrotation Yrotation Xrotation
		JOINT LeftUpLeg
		{
			OFFSET 10.205400 -3.823500 0.155100
			CHANNELS 3 Zrotation Yrotation Xrotation
			JOINT LeftLeg
			{
				OFFSET 0.708757 -12.982077 0.567790
				CHANNELS 3 Zrotation Yrotation Xrotation
				JOINT LeftFoot
				{
					OFFSET -0.708756 -10.717838 -2.184338
					CHANNELS 3 Zrotation Yrotation Xrotation
					JOINT LeftToeBase
					{
						OFFSET 0.108149 -7.191104 7.560241
						CHANNELS 3 Zrotation Yrotation Xrotation
						End Site
						{
							OFFSET 0.000000 0.000000 0.000000
						}
					}
				}
			}
		}
	}
	JOINT RightUpLeg_virtual
	{
		OFFSET 0.000000 0.000000 0.000000
		CHANNELS 3 Zrotation Yrotation Xrotation
		JOINT RightUpLeg
		{
			OFFSET -10.205400 -3.823500 0.005500
			CHANNELS 3 Zrotation Yrotation Xrotation
			JOINT RightLeg
			{
				OFFSET -0.708756 -12.982134 0.610632
				CHANNELS 3 Zrotation Yrotation Xrotation
				JOINT RightFoot
				{
					OFFSET 0.708754 -10.717769 -1.945823
					CHANNELS 3 Zrotation Yrotation Xrotation
					JOINT RightToeBase
					{
						OFFSET -0.108140 -7.191069 7.372968
						CHANNELS 3 Zrotation Yrotation Xrotation
						End Site
						{
							OFFSET 0.000000 0.000000 0.000000
						}
					}
				}
			}
		}
	}
	JOINT Spine_virtual
	{
		OFFSET 0.000000 0.000000 0.000000
		CHANNELS 3 Zrotation Yrotation Xrotation
		JOINT Spine
		{
			OFFSET 0.000000 6.876099 0.125700
			CHANNELS 3 Zrotation Yrotation Xrotation
			JOINT Spine1
			{
				OFFSET 0.000000 8.022060 0.146608
				CHANNELS 3 Zrotation Yrotation Xrotation
				JOINT Spine2
				{
					OFFSET 0.000000 9.168068 0.167552
					CHANNELS 3 Zrotation Yrotation Xrotation
					JOINT Neck_virtual
					{
						OFFSET 0.000000 0.000000 0.000000
						CHANNELS 3 Zrotation Yrotation Xrotation
						JOINT Neck
						{
							OFFSET 0.000000 10.314075 0.188496
							CHANNELS 3 Zrotation Yrotation Xrotation
							JOINT Head
							{
								OFFSET 0.000000 7.643700 -2.377400
								CHANNELS 3 Zrotation Yrotation Xrotation
								End Site
								{
									OFFSET 0.000000 0.000000 0.000000
								}
							}
						}
					}
					JOINT LeftShoulder_virtual
					{
						OFFSET 0.000000 0.000000 0.000000
						CHANNELS 3 Zrotation Yrotation Xrotation
						JOINT LeftShoulder
						{
							OFFSET 4.392200 8.824978 0.174984
							CHANNELS 3 Zrotation Yrotation Xrotation
							JOINT LeftArm
							{
								OFFSET 8.771219 -2.981674 -0.026999
								CHANNELS 3 Zrotation Yrotation Xrotation
								JOINT LeftForeArm
								{
									OFFSET 8.512804 0.000000 -0.000000
									CHANNELS 3 Zrotation Yrotation Xrotation
									JOINT LeftHand
									{
										OFFSET 18.484802 0.000000 -0.000000
										CHANNELS 3 Zrotation Yrotation Xrotation
										End Site
										{
											OFFSET 0.000000 0.000000 0.000000
										}
									}
								}
							}
						}
					}
					JOINT RightShoulder_virtual
					{
						OFFSET 0.000000 0.000000 0.000000
						CHANNELS 3 Zrotation Yrotation Xrotation
						JOINT RightShoulder
						{
							OFFSET -4.392200 8.824993 0.141379
							CHANNELS 3 Zrotation Yrotation Xrotation
							JOINT RightArm
							{
								OFFSET -8.771282 -2.981682 -0.094208
								CHANNELS 3 Zrotation Yrotation Xrotation
								JOINT RightForeArm
								{
									OFFSET -8.494598 0.000000 0.000000
									CHANNELS 3 Zrotation Yrotation Xrotation
									JOINT RightHand
									{
										OFFSET -18.483803 0.000000 0.000001
										CHANNELS 3 Zrotation Yrotation Xrotation
										End Site
										{
											OFFSET 0.000000 0.000000 0.000000
										}
									}
								}
							}
						}
					}
				}
			}
		}
	}
}
MOTION
Frames: 8
Frame Time: 0.033333
7.860091 19.528423 -5.329486 179.902579 -17.485486 179.614591 4.855789 -7.607638 2.395129 -8.232669 6.944296 -85.385595 14.417201 -7.854767 111.489062 -15.989630 -4.913002 -5.457814 0.000000 0.000000 0.000000 5.521034 -3.795505 4.392022 -1.394589 -7.871156 -20.674648 -4.402993 -1.645146 95.835716 -1.185868 18.063687 -23.201318 0.000000 0.000000 0.000000 7.040447 -1.715974 -6.315739 0.129247 6.717113 -6.150070 -0.544844 -5.126917 7.905683 -0.015802 0.062344 -0.053473 -0.551005 -3.561130 12.333936 -2.326964 2.633522 34.806805 0.000000 0.000000 0.000000 1.308147 -2.997509 7.122016 -0.441971 -1.441158 0.297838 15.553808 -19.435035 -17.684948 -161.671616 -71.134077 -177.652537 0.000000 0.000000 0.000000 -3.139139 -1.529439 6.904057 35.072898 17.114388 4.767386 31.802641 3.311462 10.903310 179.058067 60.827527 169.751238 0.000000 0.000000 0.000000 
7.947582 19.530605 -5.542686 179.959557 -16.905806 179.853375 5.018194 -7.176148 1.887049 -7.516292 6.421390 -84.816005 12.757821 -8.117623 111.933393 -15.869917 -5.288389 -5.231712 0.000000 0.000000 0.000000 5.795494 -3.511146 4.122273 -1.309030 -7.700938 -20.207664 -4.591301 -1.667317 95.615060 -1.467920 18.064773 -23.296872 0.000000 0.000000 0.000000 7.076408 -1.439205 -6.659062 0.420159 6.482570 -6.950458 -0.635990 -5.229691 7.850211 -0.001350 0.056456 -0.041415 -0.685793 -3.630388 12.313168 -2.516989 3.015121 35.319379 0.000000 0.000000 0.000000 1.159115 -3.150123 7.140626 -0.345971 -1.172753 0.278346 14.838589 -18.799281 -17.776250 -161.863981 -71.038503 -177.268681 0.000000 0.000000 0.000000 -3.338584 -1.671265 6.831973 35.146422 17.225766 5.035616 31.499883 1.875964 12.188838 178.786786 60.484959 169.680395 0.000000 0.000000 0.000000 
8.041785 19.547573 -5.715909 179.893618 -16.390210 179.757424 5.175002 -6.773577 1.067475 -6.810009 5.708317 -83.404403 11.691093 -8.413822 112.174239 -16.015496 -5.678856 -4.940532 0.000000 0.000000 0.000000 5.935647 -3.643818 3.878736 -1.384209 -7.648536 -19.498107 -4.670908 -1.606162 95.429907 -1.487036 17.848029 -23.405673 0.000000 0.000000 0.000000 7.034939 -1.445041 -6.817709 0.633089 6.214310 -7.498232 -0.750147 -5.326539 7.859675 -0.013013 0.056756 -0.093262 -0.715870 -3.754774 12.265900 -2.948522 3.339224 35.859579 0.000000 0.000000 0.000000 1.186845 -3.225770 7.147700 -0.313500 -0.943947 0.276018 14.169236 -18.163037 -17.898700 -161.907858 -70.920040 -177.083883 0.000000 0.000000 0.000000 -3.321825 -1.793318 6.793319 35.128926 17.284427 5.225211 31.550584 0.436554 12.998384 178.617889 60.187682 169.699287 0.000000 0.000000 0.000000 
8.125377 19.584059 -5.869975 179.878824 -15.705552 179.758517 5.528267 -6.520005 1.485242 -6.365601 5.351461 -83.369439 11.060645 -8.454993 112.255511 -16.371070 -5.884952 -4.544903 0.000000 0.000000 0.000000 6.218535 -3.429994 3.587401 -1.697093 -7.661172 -18.754383 -4.725326 -1.673145 95.224756 -1.787540 17.845558 -23.643545 0.000000 0.000000 0.000000 6.991761 -1.289532 -6.954889 0.884550 6.010178 -7.997026 -0.790149 -5.365996 7.868616 -0.007797 0.082082 -0.046243 -0.793244 -3.754452 12.140070 -3.411299 3.990155 36.331234 0.000000 0.000000 0.000000 1.174441 -3.263881 7.026943 -0.270706 -0.709523 0.236083 13.535656 -17.523422 -17.882086 -161.948512 -70.842913 -176.895042 0.000000 0.000000 0.000000 -3.380396 -1.794496 6.712686 35.115034 17.390227 5.368067 31.998736 -0.961752 13.249198 178.613381 59.951009 169.844101 0.000000 0.000000 0.000000 
8.189517 19.642048 -6.019003 179.869617 -15.390580 179.781453 5.873701 -6.299308 1.784009 -6.015354 5.080657 -83.225705 10.884691 -8.316369 111.991955 -16.651320 -5.908540 -4.050363 0.000000 0.000000 0.000000 6.638059 -3.296903 3.414520 -2.171275 -7.753890 -18.044626 -4.726139 -1.819569 94.922226 -2.089812 17.889036 -23.866132 0.000000 0.000000 0.000000 6.989620 -1.172755 -7.020613 1.119149 5.777160 -8.554398 -0.804484 -5.422220 7.902432 -0.002195 0.077814 -0.040382 -0.837051 -3.758992 12.055331 -3.962900 4.526742 36.723567 0.000000 0.000000 0.000000 1.183171 -3.286895 7.013285 -0.267758 -0.621812 0.316872 13.066828 -16.904047 -17.925661 -161.791185 -70.863704 -176.971267 0.000000 0.000000 0.000000 -3.414096 -1.843742 6.678763 34.985745 17.466177 5.357524 32.683548 -2.205235 13.047675 178.618572 59.772099 169.952373 0.000000 0.000000 0.000000 
8.219354 19.708054 -6.185479 179.980143 -15.400567 179.768776 6.207338 -6.165702 2.004029 -5.760717 4.906719 -83.051351 10.900488 -8.051817 111.772105 -16.798137 -5.880947 -3.468883 0.000000 0.000000 0.000000 7.190000 -3.229618 3.375581 -2.674378 -7.876546 -17.361439 -4.567006 -1.945871 94.511001 -2.246656 17.841101 -23.954320 0.000000 0.000000 0.000000 7.100526 -1.051682 -6.986265 1.365028 5.553538 -9.178227 -0.814478 -5.483174 7.877203 0.009489 0.051481 -0.014138 -0.935696 -3.713805 11.981920 -4.553552 5.070761 37.045846 0.000000 0.000000 0.000000 1.119009 -3.282226 7.041415 -0.275468 -0.574036 0.153594 12.638231 -16.365837 -17.634391 -161.691287 -70.907841 -177.047478 0.000000 0.000000 0.000000 -3.497745 -1.829201 6.658290 34.734592 17.528106 5.436954 33.454519 -3.230538 12.554683 178.617028 59.704418 170.029759 0.000000 0.000000 0.000000 
8.212889 19.771069 -6.359934 179.865805 -15.519032 179.874890 6.248544 -6.006070 2.161307 -5.548850 4.828624 -83.009324 10.910180 -7.698228 111.683476 -16.661210 -5.964182 -2.882327 0.000000 0.000000 0.000000 7.476542 -3.041161 3.365343 -3.160594 -7.982633 -16.668872 -4.517497 -2.086025 94.032396 -2.523286 18.043200 -24.067462 0.000000 0.000000 0.000000 7.193392 -0.923001 -6.975756 1.513716 5.380486 -9.819863 -0.885945 -5.479967 7.822179 -0.009295 0.063783 -0.043643 -0.939645 -3.722653 11.955456 -5.157735 5.581062 37.334565 0.000000 0.000000 0.000000 1.141387 -3.282650 7.090217 -0.281157 -0.589410 0.271320 12.551683 -15.770622 -17.509682 -161.785557 -70.934964 -176.976089 0.000000 0.000000 0.000000 -3.476815 -1.779659 6.688132 34.345688 17.628508 5.468851 34.226399 -4.109128 12.271644 178.903965 59.721863 170.374329 0.000000 0.000000 0.000000 
8.195588 19.810747 -6.515942 179.883550 -15.973555 179.833540 6.393333 -6.005052 2.268721 -5.419653 4.775423 -82.938318 10.954245 -7.305648 111.620884 -16.411859 -6.191162 -2.376507 0.000000 0.000000 0.000000 7.855883 -3.097932 3.344970 -3.525047 -8.038755 -15.918745 -4.428561 -2.173902 93.668258 -2.682169 18.096306 -24.140966 0.000000 0.000000 0.000000 7.374314 -0.926252 -6.971811 1.657862 5.206889 -10.485275 -0.960327 -5.481001 7.785886 -0.002069 0.057242 -0.019442 -1.022671 -3.719093 11.808560 -5.746972 5.929446 37.586514 0.000000 0.000000 0.000000 1.071490 -3.276657 7.030004 -0.266829 -0.609048 0.217671 12.706544 -15.243606 -17.030134 -161.860716 -71.012357 -176.977742 0.000000 0.000000 0.000000 -3.573359 -1.800586 6.586912 33.903270 17.728634 5.421215 34.945133 -4.886426 12.088823 178.920138 59.784496 170.462916 0.000000 0.000000 0.000000 
